# xmcd
#
# Track frame offsets:
# 150
# 15405
# 31157
# 53427
# 66510
# 81757
# 92140
# 105595
# 119237
# 136755
# 151255
# 174510
#
# Disc length: 2595 seconds
#
#
# Revision: 3
# Processed by: cddbd v1.5.2PL0 Copyright (c) Steve Scherf et al.
# Submitted via: FreeRIP 2.951 
#
DISCID=910a210c
DTITLE=Bill Staines - Bridges
DYEAR=1983
DGENRE=Folk
TTITLE0=Pretty Boy Floyd
TTITLE1=Moving it Down the Line
TTITLE2=Walker Behind the Wheel
TTITLE3=A Place in the Choir
TTITLE4=The Porcupine Talks to Itself
TTITLE5=The Happy Yodel
TTITLE6=Bridges
TTITLE7=Railroad Blues
TTITLE8=Louisiana Storm
TTITLE9=Secret Garden
TTITLE10=River
TTITLE11=I Bid You Goodnight
EXTD=
EXTT0=
EXTT1=
EXTT2=
EXTT3=
EXTT4=
EXTT5=
EXTT6=
EXTT7=
EXTT8=
EXTT9=
EXTT10=
EXTT11=
PLAYORDER=
